<svg width="70" height="70" viewBox="0 0 70 70" fill="none" xmlns="http://www.w3.org/2000/svg">
<path d="M39.8016 44.3692H30.2099V68.1326H39.8016V44.3692Z" fill="#0E6792"/>
<path d="M51.6843 63.9234H18.3157V68.1442H51.6843V63.9234Z" fill="#CCE7F8"/>
<path d="M51.6842 69H18.3156C18.0855 69 17.8648 68.9086 17.702 68.7459C17.5393 68.5833 17.4479 68.3627 17.4479 68.1327V63.9235C17.4509 63.6944 17.5433 63.4756 17.7054 63.3136C17.8674 63.1516 18.0864 63.0592 18.3156 63.0562H51.6842C51.9135 63.0592 52.1324 63.1516 52.2945 63.3136C52.4566 63.4756 52.549 63.6944 52.552 63.9235V68.1327C52.552 68.3627 52.4606 68.5833 52.2978 68.7459C52.1351 68.9086 51.9144 69 51.6842 69ZM19.1834 67.277H50.828V64.7792H19.1834V67.277Z" fill="#0E6792"/>
<path d="M44.3025 59.7029H25.7091V63.9236H44.3025V59.7029Z" fill="#CCE7F8"/>
<path d="M44.2909 64.7793H25.7091C25.4809 64.7793 25.2619 64.6895 25.0995 64.5294C24.9371 64.3692 24.8444 64.1516 24.8413 63.9236V59.7028C24.8444 59.4748 24.9371 59.2572 25.0995 59.097C25.2619 58.9369 25.4809 58.8471 25.7091 58.8471H44.2909C44.4043 58.8456 44.5169 58.8666 44.6221 58.9089C44.7273 58.9512 44.8231 59.014 44.9038 59.0936C44.9846 59.1732 45.0487 59.2681 45.0924 59.3727C45.1362 59.4773 45.1587 59.5895 45.1587 59.7028V63.9236C45.1587 64.0369 45.1362 64.1492 45.0924 64.2537C45.0487 64.3583 44.9846 64.4532 44.9038 64.5328C44.8231 64.6124 44.7273 64.6752 44.6221 64.7175C44.5169 64.7598 44.4043 64.7808 44.2909 64.7793ZM26.6116 63.0563H43.4347V60.5701H26.6116V63.0563Z" fill="#0E6792"/>
<path d="M61.9703 2.86725H8.04135C4.07951 2.86725 0.867798 6.07714 0.867798 10.0367V43.9993C0.867798 47.9589 4.07951 51.1688 8.04135 51.1688H61.9703C65.9321 51.1688 69.1438 47.9589 69.1438 43.9993V10.0367C69.1438 6.07714 65.9321 2.86725 61.9703 2.86725Z" fill="white"/>
<path d="M65.5686 52.0245H4.4314C3.25612 52.0245 2.12898 51.5579 1.29793 50.7273C0.466879 49.8967 0 48.7702 0 47.5956L0 6.42889C0.00305422 5.25522 0.470914 4.13048 1.3013 3.30056C2.13169 2.47065 3.25706 2.00305 4.4314 2L65.5686 2C66.7429 2.00305 67.8683 2.47065 68.6987 3.30056C69.5291 4.13048 69.9969 5.25522 70 6.42889V47.5956C70 48.7702 69.5331 49.8967 68.7021 50.7273C67.871 51.5579 66.7439 52.0245 65.5686 52.0245ZM4.4314 3.72299C3.71335 3.72299 3.0247 4.00807 2.51696 4.51553C2.00921 5.02298 1.72397 5.71124 1.72397 6.42889V47.5956C1.72397 48.3133 2.00921 49.0015 2.51696 49.509C3.0247 50.0164 3.71335 50.3015 4.4314 50.3015H65.5686C66.2846 50.2985 66.9703 50.012 67.4756 49.5049C67.9808 48.9978 68.2645 48.3113 68.2645 47.5956V6.42889C68.2645 6.07355 68.1944 5.72168 68.0584 5.39339C67.9223 5.06509 67.7229 4.7668 67.4715 4.51553C67.2201 4.26426 66.9216 4.06495 66.5931 3.92896C66.2646 3.79298 65.9126 3.72299 65.557 3.72299H4.4314Z" fill="#0E6792"/>
<path d="M59.2512 13.5636H18.3157V17.8306H59.2512V13.5636Z" fill="#0E6792"/>
<path d="M38.9339 20.8257H18.3157V23.8901H38.9339V20.8257Z" fill="#0E6792"/>
<path d="M38.9339 26.7579H18.3157V29.8223H38.9339V26.7579Z" fill="#0E6792"/>
<path d="M13.3405 29.9148C14.2415 29.9148 14.9719 29.1848 14.9719 28.2843C14.9719 27.3838 14.2415 26.6538 13.3405 26.6538C12.4395 26.6538 11.7091 27.3838 11.7091 28.2843C11.7091 29.1848 12.4395 29.9148 13.3405 29.9148Z" fill="#CCE7F8"/>
<path d="M38.9339 32.297H18.3157V35.3613H38.9339V32.297Z" fill="#0E6792"/>
<path d="M13.3405 35.4539C14.2415 35.4539 14.9719 34.7239 14.9719 33.8234C14.9719 32.9229 14.2415 32.1929 13.3405 32.1929C12.4395 32.1929 11.7091 32.9229 11.7091 33.8234C11.7091 34.7239 12.4395 35.4539 13.3405 35.4539Z" fill="#CCE7F8"/>
<path d="M13.3405 23.9942C14.2415 23.9942 14.9719 23.2642 14.9719 22.3637C14.9719 21.4632 14.2415 20.7332 13.3405 20.7332C12.4395 20.7332 11.7091 21.4632 11.7091 22.3637C11.7091 23.2642 12.4395 23.9942 13.3405 23.9942Z" fill="#0E6792"/>
<path d="M50.5389 38.2523C48.8721 38.2454 47.2448 37.7452 45.8623 36.8147C44.4798 35.8843 43.4041 34.5653 42.771 33.0244C42.1379 31.4834 41.9758 29.7895 42.3052 28.1566C42.6345 26.5236 43.4406 25.0248 44.6216 23.8493C45.8026 22.6739 47.3055 21.8744 48.9408 21.552C50.576 21.2295 52.2701 21.3984 53.8094 22.0375C55.3486 22.6765 56.6639 23.757 57.5891 25.1426C58.5144 26.5281 59.0083 28.1565 59.0083 29.8223C59.0068 30.9319 58.7864 32.0302 58.3598 33.0546C57.9332 34.0789 57.3088 35.0092 56.5221 35.7921C55.7355 36.575 54.8022 37.1953 53.7755 37.6175C52.7489 38.0396 51.649 38.2553 50.5389 38.2523ZM50.5389 23.1154C49.2111 23.1131 47.9125 23.5045 46.8074 24.2401C45.7023 24.9757 44.8404 26.0224 44.3307 27.2477C43.821 28.473 43.6865 29.8219 43.9441 31.1237C44.2017 32.4255 44.8399 33.6216 45.778 34.5608C46.716 35.4999 47.9118 36.1398 49.2138 36.3996C50.5159 36.6593 51.8658 36.5271 53.0927 36.0198C54.3196 35.5126 55.3684 34.6529 56.1063 33.5497C56.8442 32.4465 57.238 31.1493 57.238 29.8223C57.238 28.0456 56.5326 26.3414 55.2766 25.0839C54.0206 23.8264 52.3167 23.1185 50.5389 23.1154Z" fill="#0E6792"/>
<path d="M50.5388 33.9159C50.3319 33.9118 50.1322 33.8385 49.9719 33.7077L47.0909 31.21C46.9175 31.0566 46.8122 30.8407 46.7981 30.6098C46.784 30.3788 46.8622 30.1517 47.0157 29.9784C47.1691 29.8052 47.3851 29.6999 47.6162 29.6858C47.8473 29.6717 48.0745 29.7499 48.2479 29.9033L50.2958 31.6841L52.8644 26.7117C52.9703 26.5093 53.1523 26.3572 53.3704 26.2889C53.5884 26.2206 53.8247 26.2416 54.0272 26.3474C54.2298 26.4532 54.3819 26.6351 54.4503 26.8531C54.5186 27.071 54.4976 27.3072 54.3917 27.5096L51.3256 33.4418C51.267 33.5583 51.1821 33.6596 51.0778 33.7379C50.9734 33.8161 50.8523 33.8691 50.7239 33.8927L50.5388 33.9159Z" fill="#0E6792"/>
<path d="M61.9472 7.08796V39.9288C61.9472 40.9532 61.54 41.9356 60.8153 42.6599C60.0906 43.3842 59.1076 43.7911 58.0827 43.7911H4.51245L6.76865 47.0983L61.9472 46.5433H63.8678L65.1058 44.6006V8.93815L63.5207 6.29007L61.9472 7.08796Z" fill="#CCE7F8"/>
<path d="M62.4793 48.1044H7.50904C6.58845 48.1044 5.70557 47.7389 5.05462 47.0883C4.40367 46.4377 4.03796 45.5553 4.03796 44.6353V8.93816C4.03796 8.0181 4.40367 7.13572 5.05462 6.48513C5.70557 5.83455 6.58845 5.46906 7.50904 5.46906H62.4793C63.3999 5.46906 64.2828 5.83455 64.9337 6.48513C65.5847 7.13572 65.9504 8.0181 65.9504 8.93816V44.67C65.9412 45.584 65.5715 46.4575 64.9215 47.1006C64.2716 47.7437 63.3939 48.1044 62.4793 48.1044ZM7.50904 7.15735C7.27861 7.16036 7.05105 7.20889 6.83947 7.30017C6.62789 7.39144 6.43647 7.52365 6.27622 7.68917C6.11598 7.85469 5.99009 8.05027 5.9058 8.26463C5.8215 8.47898 5.78047 8.70789 5.78507 8.93816V44.67C5.7881 45.1321 5.97315 45.5745 6.30014 45.9013C6.62713 46.2281 7.06975 46.413 7.53218 46.4161H62.4793C62.9426 46.4161 63.387 46.2321 63.7147 45.9046C64.0423 45.5772 64.2264 45.1331 64.2264 44.67V8.93816C64.2326 8.70554 64.1919 8.47404 64.1068 8.25746C64.0216 8.04087 63.8937 7.84363 63.7307 7.67747C63.5677 7.51131 63.3729 7.37964 63.1579 7.29028C62.9429 7.20093 62.7121 7.15572 62.4793 7.15735H7.50904Z" fill="#0E6792"/>
</svg>
